<svg width="179" height="192" viewBox="0 0 179 192" fill="none" xmlns="http://www.w3.org/2000/svg"><path d="M48.016 24.123C34.913 47.016 42.78 76.215 65.641 89.416a47.7 47.7 0 0 0 23.949 6.426L89.5 96c-13.23 22.917-42.53 30.769-65.443 17.538C1.143 100.307-6.708 71.003 6.522 48.087c8.866-15.36 24.951-23.95 41.494-23.965" fill="#EF4444"/><path d="M113.549 6.427a47.7 47.7 0 0 1 17.54 17.53c-16.543.014-32.628 8.606-41.494 23.965s-8.263 33.585-.004 47.92a47.7 47.7 0 0 1-23.95-6.426C42.728 76.185 34.877 46.882 48.106 23.965c13.23-22.917 42.53-30.769 65.443-17.538" fill="#F97316"/><path d="M155.038 30.384c22.914 13.23 30.765 42.534 17.536 65.451l-.092.156a47.7 47.7 0 0 0-17.539-17.529c-22.861-13.2-52.079-5.414-65.351 17.381-8.26-14.335-8.863-32.562.003-47.921 13.23-22.917 42.529-30.769 65.443-17.538" fill="#EAB308"/><path d="M154.943 78.462c22.914 13.231 30.765 42.535 17.535 65.452-8.866 15.359-24.951 23.95-41.494 23.963 13.102-22.893 5.236-52.092-17.625-65.293a47.7 47.7 0 0 0-23.949-6.427L89.5 96c13.229-22.917 42.529-30.769 65.443-17.538" fill="#84CC16"/><path d="M113.359 102.584c22.913 13.231 30.764 42.535 17.535 65.451-13.229 22.917-42.53 30.769-65.443 17.538a47.7 47.7 0 0 1-17.54-17.531c16.543-.014 32.628-8.605 41.494-23.964s8.263-33.585.004-47.92a47.7 47.7 0 0 1 23.95 6.426" fill="#3B82F6"/><path d="M89.408 96.157c8.26 14.335 8.863 32.562-.003 47.921-13.23 22.917-42.53 30.769-65.443 17.538C1.048 148.385-6.803 119.082 6.426 96.165l.092-.157a47.7 47.7 0 0 0 17.539 17.53c22.861 13.2 52.079 5.414 65.351-17.382" fill="#A855F7"/></svg>