<svg width="182" height="192" viewBox="0 0 182 192" fill="none" xmlns="http://www.w3.org/2000/svg"><path d="M25.186 30.873a48.6 48.6 0 0 1 24.377-6.53c-8.407 14.566-9.02 33.087.004 48.693 9.025 15.606 25.396 24.335 42.234 24.349-4.137 7.168-10.16 13.38-17.852 17.814-23.323 13.444-53.146 5.465-66.612-17.82-13.465-23.286-5.474-53.062 17.849-66.506" fill="#EF4444"/><path d="M67.416 6.53C90.269-6.643 119.359.754 133.19 22.964a48.6 48.6 0 0 0-24.341 6.53C85.526 42.94 77.535 72.715 91 96.002c.271.468.552.929.835 1.385-16.85-.003-33.237-8.734-42.268-24.35C36.102 49.75 44.093 19.974 67.416 6.53" fill="#F97316"/><path d="M108.849 29.495c23.323-13.444 53.145-5.466 66.611 17.82 9.03 15.617 8.409 34.152-.015 48.723a48 48 0 0 0-.782-1.416c-13.466-23.286-43.289-31.264-66.611-17.82-7.682 4.428-13.7 10.627-17.837 17.782-12.35-23.064-4.22-51.916 18.634-65.09" fill="#EAB308"/><path d="M108.052 76.802c23.322-13.444 53.145-5.466 66.611 17.82 13.465 23.286 5.474 53.061-17.849 66.505a48.6 48.6 0 0 1-24.378 6.529c8.407-14.566 9.021-33.086-.003-48.692s-25.396-24.336-42.235-24.35c4.137-7.168 10.162-13.378 17.854-17.812" fill="#84CC16"/><path d="M90.164 94.616c16.85.002 33.238 8.732 42.269 24.348 13.465 23.286 5.474 53.061-17.849 66.506-22.854 13.173-51.946 5.776-65.776-16.435a48.6 48.6 0 0 0 24.344-6.529c23.323-13.444 31.314-43.22 17.848-66.505-.27-.469-.552-.929-.836-1.385" fill="#3B82F6"/><path d="M6.554 95.964q.379.711.783 1.415c13.466 23.285 43.289 31.264 66.612 17.82 7.68-4.428 13.697-10.629 17.833-17.784 12.352 23.064 4.224 51.917-18.63 65.091-23.323 13.444-53.146 5.465-66.612-17.821-9.03-15.616-8.409-34.15.014-48.72" fill="#A855F7"/></svg>